<mxfile host="app.diagrams.net" modified="2023-05-12T19:11:49.050Z" agent="Mozilla/5.0 (Macintosh; Intel Mac OS X 10_15_7) AppleWebKit/605.1.15 (KHTML, like Gecko) Version/15.6 Safari/605.1.15" etag="-0pYeYSjU21Rd347XQ1m" version="21.3.0" type="github">
  <diagram name="Страница 1" id="6sES-MasoRbapLTaiVR0">
    <mxGraphModel dx="658" dy="429" grid="1" gridSize="10" guides="1" tooltips="1" connect="1" arrows="1" fold="1" page="1" pageScale="1" pageWidth="827" pageHeight="1169" math="1" shadow="0">
      <root>
        <mxCell id="0" />
        <mxCell id="1" parent="0" />
        <mxCell id="2tsA4BJ0mwG9CYiNuvst-1" value="" style="ellipse;whiteSpace=wrap;html=1;aspect=fixed;fillColor=#dae8fc;strokeColor=#0066CC;strokeWidth=0.6;" vertex="1" parent="1">
          <mxGeometry x="120" y="210" width="20" height="20" as="geometry" />
        </mxCell>
        <mxCell id="2tsA4BJ0mwG9CYiNuvst-2" value="" style="ellipse;whiteSpace=wrap;html=1;aspect=fixed;fillColor=#dae8fc;strokeColor=#0066CC;strokeWidth=0.6;" vertex="1" parent="1">
          <mxGeometry x="120" y="250" width="20" height="20" as="geometry" />
        </mxCell>
        <mxCell id="2tsA4BJ0mwG9CYiNuvst-16" style="rounded=0;orthogonalLoop=1;jettySize=auto;html=1;exitX=0;exitY=0;exitDx=0;exitDy=0;entryX=1;entryY=0.5;entryDx=0;entryDy=0;endArrow=none;endFill=0;fillColor=#dae8fc;strokeColor=#0066CC;strokeWidth=0.6;" edge="1" parent="1" source="2tsA4BJ0mwG9CYiNuvst-3" target="2tsA4BJ0mwG9CYiNuvst-1">
          <mxGeometry relative="1" as="geometry" />
        </mxCell>
        <mxCell id="2tsA4BJ0mwG9CYiNuvst-17" style="rounded=0;orthogonalLoop=1;jettySize=auto;html=1;exitX=0;exitY=1;exitDx=0;exitDy=0;entryX=1;entryY=0;entryDx=0;entryDy=0;endArrow=none;endFill=0;fillColor=#dae8fc;strokeColor=#0066CC;strokeWidth=0.6;" edge="1" parent="1" source="2tsA4BJ0mwG9CYiNuvst-3" target="2tsA4BJ0mwG9CYiNuvst-2">
          <mxGeometry relative="1" as="geometry" />
        </mxCell>
        <mxCell id="2tsA4BJ0mwG9CYiNuvst-3" value="" style="ellipse;whiteSpace=wrap;html=1;aspect=fixed;fillColor=#dae8fc;strokeColor=#0066CC;strokeWidth=0.6;" vertex="1" parent="1">
          <mxGeometry x="150" y="230" width="20" height="20" as="geometry" />
        </mxCell>
        <mxCell id="2tsA4BJ0mwG9CYiNuvst-4" value="" style="ellipse;whiteSpace=wrap;html=1;aspect=fixed;fillColor=#dae8fc;strokeColor=#0066CC;strokeWidth=0.6;" vertex="1" parent="1">
          <mxGeometry x="160" y="270" width="20" height="20" as="geometry" />
        </mxCell>
        <mxCell id="2tsA4BJ0mwG9CYiNuvst-7" value="" style="ellipse;whiteSpace=wrap;html=1;aspect=fixed;fillColor=#dae8fc;strokeColor=#0066CC;strokeWidth=0.6;" vertex="1" parent="1">
          <mxGeometry x="150" y="180" width="20" height="20" as="geometry" />
        </mxCell>
        <mxCell id="2tsA4BJ0mwG9CYiNuvst-8" value="" style="ellipse;whiteSpace=wrap;html=1;aspect=fixed;fillColor=#dae8fc;strokeColor=#0066CC;strokeWidth=0.6;" vertex="1" parent="1">
          <mxGeometry x="160" y="320" width="20" height="20" as="geometry" />
        </mxCell>
        <mxCell id="2tsA4BJ0mwG9CYiNuvst-10" style="rounded=0;orthogonalLoop=1;jettySize=auto;html=1;exitX=0;exitY=1;exitDx=0;exitDy=0;entryX=1;entryY=0;entryDx=0;entryDy=0;endArrow=none;endFill=0;fillColor=#dae8fc;strokeColor=#0066CC;strokeWidth=0.6;" edge="1" parent="1" source="2tsA4BJ0mwG9CYiNuvst-9" target="2tsA4BJ0mwG9CYiNuvst-8">
          <mxGeometry relative="1" as="geometry" />
        </mxCell>
        <mxCell id="2tsA4BJ0mwG9CYiNuvst-14" style="rounded=0;orthogonalLoop=1;jettySize=auto;html=1;exitX=0;exitY=0.5;exitDx=0;exitDy=0;entryX=1;entryY=0.5;entryDx=0;entryDy=0;endArrow=none;endFill=0;fillColor=#dae8fc;strokeColor=#0066CC;strokeWidth=0.6;" edge="1" parent="1" source="2tsA4BJ0mwG9CYiNuvst-9" target="2tsA4BJ0mwG9CYiNuvst-4">
          <mxGeometry relative="1" as="geometry" />
        </mxCell>
        <mxCell id="2tsA4BJ0mwG9CYiNuvst-26" style="rounded=0;orthogonalLoop=1;jettySize=auto;html=1;exitX=0.5;exitY=1;exitDx=0;exitDy=0;entryX=0.5;entryY=0;entryDx=0;entryDy=0;endArrow=none;endFill=0;fillColor=#dae8fc;strokeColor=#0066CC;strokeWidth=0.6;" edge="1" parent="1" source="2tsA4BJ0mwG9CYiNuvst-9" target="2tsA4BJ0mwG9CYiNuvst-22">
          <mxGeometry relative="1" as="geometry" />
        </mxCell>
        <mxCell id="2tsA4BJ0mwG9CYiNuvst-36" style="rounded=0;orthogonalLoop=1;jettySize=auto;html=1;exitX=1;exitY=0.5;exitDx=0;exitDy=0;entryX=0;entryY=0;entryDx=0;entryDy=0;endArrow=none;endFill=0;fillColor=#dae8fc;strokeColor=#0066CC;strokeWidth=0.6;" edge="1" parent="1" source="2tsA4BJ0mwG9CYiNuvst-9" target="2tsA4BJ0mwG9CYiNuvst-33">
          <mxGeometry relative="1" as="geometry" />
        </mxCell>
        <mxCell id="2tsA4BJ0mwG9CYiNuvst-9" value="" style="ellipse;whiteSpace=wrap;html=1;aspect=fixed;fillColor=#dae8fc;strokeColor=#0066CC;strokeWidth=0.6;" vertex="1" parent="1">
          <mxGeometry x="220" y="270" width="20" height="20" as="geometry" />
        </mxCell>
        <mxCell id="2tsA4BJ0mwG9CYiNuvst-12" style="rounded=0;orthogonalLoop=1;jettySize=auto;html=1;exitX=0;exitY=0.5;exitDx=0;exitDy=0;entryX=1;entryY=0.5;entryDx=0;entryDy=0;endArrow=none;endFill=0;fillColor=#dae8fc;strokeColor=#0066CC;strokeWidth=0.6;" edge="1" parent="1" source="2tsA4BJ0mwG9CYiNuvst-11" target="2tsA4BJ0mwG9CYiNuvst-3">
          <mxGeometry relative="1" as="geometry" />
        </mxCell>
        <mxCell id="2tsA4BJ0mwG9CYiNuvst-13" style="rounded=0;orthogonalLoop=1;jettySize=auto;html=1;exitX=1;exitY=1;exitDx=0;exitDy=0;entryX=0.5;entryY=0;entryDx=0;entryDy=0;endArrow=none;endFill=0;fillColor=#dae8fc;strokeColor=#0066CC;strokeWidth=0.6;" edge="1" parent="1" source="2tsA4BJ0mwG9CYiNuvst-11" target="2tsA4BJ0mwG9CYiNuvst-9">
          <mxGeometry relative="1" as="geometry" />
        </mxCell>
        <mxCell id="2tsA4BJ0mwG9CYiNuvst-15" style="rounded=0;orthogonalLoop=1;jettySize=auto;html=1;exitX=0;exitY=0;exitDx=0;exitDy=0;entryX=1;entryY=1;entryDx=0;entryDy=0;endArrow=none;endFill=0;fillColor=#dae8fc;strokeColor=#0066CC;strokeWidth=0.6;" edge="1" parent="1" source="2tsA4BJ0mwG9CYiNuvst-11" target="2tsA4BJ0mwG9CYiNuvst-7">
          <mxGeometry relative="1" as="geometry" />
        </mxCell>
        <mxCell id="2tsA4BJ0mwG9CYiNuvst-19" style="rounded=0;orthogonalLoop=1;jettySize=auto;html=1;exitX=1;exitY=0;exitDx=0;exitDy=0;entryX=0;entryY=1;entryDx=0;entryDy=0;endArrow=none;endFill=0;fillColor=#dae8fc;strokeColor=#0066CC;strokeWidth=0.6;" edge="1" parent="1" source="2tsA4BJ0mwG9CYiNuvst-11" target="2tsA4BJ0mwG9CYiNuvst-18">
          <mxGeometry relative="1" as="geometry" />
        </mxCell>
        <mxCell id="2tsA4BJ0mwG9CYiNuvst-11" value="" style="ellipse;whiteSpace=wrap;html=1;aspect=fixed;fillColor=#dae8fc;strokeColor=#0066CC;strokeWidth=0.6;" vertex="1" parent="1">
          <mxGeometry x="200" y="230" width="20" height="20" as="geometry" />
        </mxCell>
        <mxCell id="2tsA4BJ0mwG9CYiNuvst-31" style="rounded=0;orthogonalLoop=1;jettySize=auto;html=1;exitX=0;exitY=0;exitDx=0;exitDy=0;entryX=0.5;entryY=1;entryDx=0;entryDy=0;endArrow=none;endFill=0;fillColor=#dae8fc;strokeColor=#0066CC;strokeWidth=0.6;" edge="1" parent="1" source="2tsA4BJ0mwG9CYiNuvst-18" target="2tsA4BJ0mwG9CYiNuvst-20">
          <mxGeometry relative="1" as="geometry" />
        </mxCell>
        <mxCell id="2tsA4BJ0mwG9CYiNuvst-32" style="rounded=0;orthogonalLoop=1;jettySize=auto;html=1;exitX=1;exitY=0;exitDx=0;exitDy=0;entryX=0.5;entryY=1;entryDx=0;entryDy=0;endArrow=none;endFill=0;fillColor=#dae8fc;strokeColor=#0066CC;strokeWidth=0.6;" edge="1" parent="1" source="2tsA4BJ0mwG9CYiNuvst-18" target="2tsA4BJ0mwG9CYiNuvst-21">
          <mxGeometry relative="1" as="geometry" />
        </mxCell>
        <mxCell id="2tsA4BJ0mwG9CYiNuvst-45" style="rounded=0;orthogonalLoop=1;jettySize=auto;html=1;exitX=1;exitY=0.5;exitDx=0;exitDy=0;entryX=0;entryY=0;entryDx=0;entryDy=0;endArrow=none;endFill=0;fillColor=#0050ef;strokeColor=#000000;strokeWidth=1;" edge="1" parent="1" source="2tsA4BJ0mwG9CYiNuvst-18" target="2tsA4BJ0mwG9CYiNuvst-37">
          <mxGeometry relative="1" as="geometry" />
        </mxCell>
        <mxCell id="2tsA4BJ0mwG9CYiNuvst-18" value="" style="ellipse;whiteSpace=wrap;html=1;aspect=fixed;fillColor=#dae8fc;strokeColor=#007FFF;strokeWidth=0.6;" vertex="1" parent="1">
          <mxGeometry x="230" y="200" width="20" height="20" as="geometry" />
        </mxCell>
        <mxCell id="2tsA4BJ0mwG9CYiNuvst-20" value="" style="ellipse;whiteSpace=wrap;html=1;aspect=fixed;fillColor=#dae8fc;strokeColor=#0066CC;strokeWidth=0.6;" vertex="1" parent="1">
          <mxGeometry x="210" y="160" width="20" height="20" as="geometry" />
        </mxCell>
        <mxCell id="2tsA4BJ0mwG9CYiNuvst-21" value="" style="ellipse;whiteSpace=wrap;html=1;aspect=fixed;fillColor=#dae8fc;strokeColor=#0066CC;strokeWidth=0.6;" vertex="1" parent="1">
          <mxGeometry x="240" y="160" width="20" height="20" as="geometry" />
        </mxCell>
        <mxCell id="2tsA4BJ0mwG9CYiNuvst-27" style="rounded=0;orthogonalLoop=1;jettySize=auto;html=1;exitX=0;exitY=1;exitDx=0;exitDy=0;entryX=0.5;entryY=0;entryDx=0;entryDy=0;endArrow=none;endFill=0;fillColor=#dae8fc;strokeColor=#0066CC;strokeWidth=0.6;" edge="1" parent="1" source="2tsA4BJ0mwG9CYiNuvst-22" target="2tsA4BJ0mwG9CYiNuvst-23">
          <mxGeometry relative="1" as="geometry" />
        </mxCell>
        <mxCell id="2tsA4BJ0mwG9CYiNuvst-28" style="rounded=0;orthogonalLoop=1;jettySize=auto;html=1;exitX=0.5;exitY=1;exitDx=0;exitDy=0;entryX=0.5;entryY=0;entryDx=0;entryDy=0;endArrow=none;endFill=0;fillColor=#dae8fc;strokeColor=#0066CC;strokeWidth=0.6;" edge="1" parent="1" source="2tsA4BJ0mwG9CYiNuvst-22" target="2tsA4BJ0mwG9CYiNuvst-24">
          <mxGeometry relative="1" as="geometry" />
        </mxCell>
        <mxCell id="2tsA4BJ0mwG9CYiNuvst-29" style="rounded=0;orthogonalLoop=1;jettySize=auto;html=1;exitX=1;exitY=1;exitDx=0;exitDy=0;entryX=0.5;entryY=0;entryDx=0;entryDy=0;endArrow=none;endFill=0;fillColor=#dae8fc;strokeColor=#0066CC;strokeWidth=0.6;" edge="1" parent="1" source="2tsA4BJ0mwG9CYiNuvst-22" target="2tsA4BJ0mwG9CYiNuvst-25">
          <mxGeometry relative="1" as="geometry" />
        </mxCell>
        <mxCell id="2tsA4BJ0mwG9CYiNuvst-22" value="" style="ellipse;whiteSpace=wrap;html=1;aspect=fixed;fillColor=#dae8fc;strokeColor=#0066CC;strokeWidth=0.6;" vertex="1" parent="1">
          <mxGeometry x="220" y="330" width="20" height="20" as="geometry" />
        </mxCell>
        <mxCell id="2tsA4BJ0mwG9CYiNuvst-23" value="" style="ellipse;whiteSpace=wrap;html=1;aspect=fixed;fillColor=#dae8fc;strokeColor=#0066CC;strokeWidth=0.6;" vertex="1" parent="1">
          <mxGeometry x="190" y="360" width="20" height="20" as="geometry" />
        </mxCell>
        <mxCell id="2tsA4BJ0mwG9CYiNuvst-24" value="" style="ellipse;whiteSpace=wrap;html=1;aspect=fixed;fillColor=#dae8fc;strokeColor=#0066CC;strokeWidth=0.6;" vertex="1" parent="1">
          <mxGeometry x="220" y="360" width="20" height="20" as="geometry" />
        </mxCell>
        <mxCell id="2tsA4BJ0mwG9CYiNuvst-25" value="" style="ellipse;whiteSpace=wrap;html=1;aspect=fixed;fillColor=#dae8fc;strokeColor=#0066CC;strokeWidth=0.6;" vertex="1" parent="1">
          <mxGeometry x="250" y="360" width="20" height="20" as="geometry" />
        </mxCell>
        <mxCell id="2tsA4BJ0mwG9CYiNuvst-35" style="rounded=0;orthogonalLoop=1;jettySize=auto;html=1;exitX=1;exitY=1;exitDx=0;exitDy=0;entryX=0;entryY=0;entryDx=0;entryDy=0;endArrow=none;endFill=0;fillColor=#dae8fc;strokeColor=#0066CC;strokeWidth=0.6;" edge="1" parent="1" source="2tsA4BJ0mwG9CYiNuvst-33" target="2tsA4BJ0mwG9CYiNuvst-34">
          <mxGeometry relative="1" as="geometry" />
        </mxCell>
        <mxCell id="2tsA4BJ0mwG9CYiNuvst-47" style="rounded=0;orthogonalLoop=1;jettySize=auto;html=1;exitX=1;exitY=0;exitDx=0;exitDy=0;entryX=0;entryY=1;entryDx=0;entryDy=0;endArrow=none;endFill=0;fillColor=#dae8fc;strokeColor=#0066CC;strokeWidth=0.6;" edge="1" parent="1" source="2tsA4BJ0mwG9CYiNuvst-33" target="2tsA4BJ0mwG9CYiNuvst-40">
          <mxGeometry relative="1" as="geometry" />
        </mxCell>
        <mxCell id="2tsA4BJ0mwG9CYiNuvst-33" value="" style="ellipse;whiteSpace=wrap;html=1;aspect=fixed;fillColor=#dae8fc;strokeColor=#0066CC;strokeWidth=0.6;" vertex="1" parent="1">
          <mxGeometry x="270" y="290" width="20" height="20" as="geometry" />
        </mxCell>
        <mxCell id="2tsA4BJ0mwG9CYiNuvst-34" value="" style="ellipse;whiteSpace=wrap;html=1;aspect=fixed;fillColor=#dae8fc;strokeColor=#0066CC;strokeWidth=0.6;" vertex="1" parent="1">
          <mxGeometry x="300" y="320" width="20" height="20" as="geometry" />
        </mxCell>
        <mxCell id="2tsA4BJ0mwG9CYiNuvst-46" style="rounded=0;orthogonalLoop=1;jettySize=auto;html=1;exitX=1;exitY=1;exitDx=0;exitDy=0;endArrow=none;endFill=0;fillColor=#0050ef;strokeColor=#000000;strokeWidth=1;" edge="1" parent="1" source="2tsA4BJ0mwG9CYiNuvst-37" target="2tsA4BJ0mwG9CYiNuvst-40">
          <mxGeometry relative="1" as="geometry" />
        </mxCell>
        <mxCell id="2tsA4BJ0mwG9CYiNuvst-52" style="rounded=0;orthogonalLoop=1;jettySize=auto;html=1;exitX=0.5;exitY=0;exitDx=0;exitDy=0;entryX=0;entryY=1;entryDx=0;entryDy=0;endArrow=none;endFill=0;fillColor=#0050ef;strokeColor=#000000;strokeWidth=1;" edge="1" parent="1" source="2tsA4BJ0mwG9CYiNuvst-37" target="2tsA4BJ0mwG9CYiNuvst-38">
          <mxGeometry relative="1" as="geometry" />
        </mxCell>
        <mxCell id="2tsA4BJ0mwG9CYiNuvst-54" style="rounded=0;orthogonalLoop=1;jettySize=auto;html=1;exitX=1;exitY=0.5;exitDx=0;exitDy=0;entryX=0;entryY=1;entryDx=0;entryDy=0;endArrow=none;endFill=0;fillColor=#0050ef;strokeColor=#000000;strokeWidth=1;" edge="1" parent="1" source="2tsA4BJ0mwG9CYiNuvst-37" target="2tsA4BJ0mwG9CYiNuvst-39">
          <mxGeometry relative="1" as="geometry" />
        </mxCell>
        <mxCell id="2tsA4BJ0mwG9CYiNuvst-37" value="" style="ellipse;whiteSpace=wrap;html=1;aspect=fixed;fillColor=#0000FF;strokeColor=#000000;fontColor=#ffffff;strokeWidth=1;" vertex="1" parent="1">
          <mxGeometry x="280" y="220" width="20" height="20" as="geometry" />
        </mxCell>
        <mxCell id="2tsA4BJ0mwG9CYiNuvst-38" value="" style="ellipse;whiteSpace=wrap;html=1;aspect=fixed;fillColor=#dae8fc;strokeColor=#0066CC;strokeWidth=0.6;" vertex="1" parent="1">
          <mxGeometry x="300" y="170" width="20" height="20" as="geometry" />
        </mxCell>
        <mxCell id="2tsA4BJ0mwG9CYiNuvst-39" value="" style="ellipse;whiteSpace=wrap;html=1;aspect=fixed;fillColor=#dae8fc;strokeColor=#007FFF;strokeWidth=0.6;" vertex="1" parent="1">
          <mxGeometry x="340" y="200" width="20" height="20" as="geometry" />
        </mxCell>
        <mxCell id="2tsA4BJ0mwG9CYiNuvst-48" style="rounded=0;orthogonalLoop=1;jettySize=auto;html=1;exitX=1;exitY=0.5;exitDx=0;exitDy=0;entryX=0;entryY=0.5;entryDx=0;entryDy=0;endArrow=none;endFill=0;fillColor=#dae8fc;strokeColor=#0066CC;strokeWidth=0.6;" edge="1" parent="1" source="2tsA4BJ0mwG9CYiNuvst-40" target="2tsA4BJ0mwG9CYiNuvst-41">
          <mxGeometry relative="1" as="geometry" />
        </mxCell>
        <mxCell id="2tsA4BJ0mwG9CYiNuvst-40" value="" style="ellipse;whiteSpace=wrap;html=1;aspect=fixed;fillColor=#dae8fc;strokeColor=#007FFF;strokeWidth=0.6;" vertex="1" parent="1">
          <mxGeometry x="310" y="260" width="20" height="20" as="geometry" />
        </mxCell>
        <mxCell id="2tsA4BJ0mwG9CYiNuvst-49" style="rounded=0;orthogonalLoop=1;jettySize=auto;html=1;exitX=1;exitY=0;exitDx=0;exitDy=0;entryX=-0.033;entryY=0.748;entryDx=0;entryDy=0;entryPerimeter=0;endArrow=none;endFill=0;fillColor=#dae8fc;strokeColor=#0066CC;strokeWidth=0.6;" edge="1" parent="1" source="2tsA4BJ0mwG9CYiNuvst-41" target="2tsA4BJ0mwG9CYiNuvst-44">
          <mxGeometry relative="1" as="geometry" />
        </mxCell>
        <mxCell id="2tsA4BJ0mwG9CYiNuvst-50" style="rounded=0;orthogonalLoop=1;jettySize=auto;html=1;exitX=1;exitY=1;exitDx=0;exitDy=0;entryX=0;entryY=0;entryDx=0;entryDy=0;endArrow=none;endFill=0;fillColor=#dae8fc;strokeColor=#0066CC;strokeWidth=0.6;" edge="1" parent="1" source="2tsA4BJ0mwG9CYiNuvst-41" target="2tsA4BJ0mwG9CYiNuvst-42">
          <mxGeometry relative="1" as="geometry" />
        </mxCell>
        <mxCell id="2tsA4BJ0mwG9CYiNuvst-41" value="" style="ellipse;whiteSpace=wrap;html=1;aspect=fixed;fillColor=#dae8fc;strokeColor=#0066CC;strokeWidth=0.6;" vertex="1" parent="1">
          <mxGeometry x="350" y="260" width="20" height="20" as="geometry" />
        </mxCell>
        <mxCell id="2tsA4BJ0mwG9CYiNuvst-51" style="rounded=0;orthogonalLoop=1;jettySize=auto;html=1;exitX=0;exitY=1;exitDx=0;exitDy=0;entryX=1;entryY=0;entryDx=0;entryDy=0;endArrow=none;endFill=0;fillColor=#dae8fc;strokeColor=#0066CC;strokeWidth=0.6;" edge="1" parent="1" source="2tsA4BJ0mwG9CYiNuvst-42" target="2tsA4BJ0mwG9CYiNuvst-43">
          <mxGeometry relative="1" as="geometry" />
        </mxCell>
        <mxCell id="2tsA4BJ0mwG9CYiNuvst-42" value="" style="ellipse;whiteSpace=wrap;html=1;aspect=fixed;fillColor=#dae8fc;strokeColor=#0066CC;strokeWidth=0.6;" vertex="1" parent="1">
          <mxGeometry x="380" y="280" width="20" height="20" as="geometry" />
        </mxCell>
        <mxCell id="2tsA4BJ0mwG9CYiNuvst-43" value="" style="ellipse;whiteSpace=wrap;html=1;aspect=fixed;fillColor=#dae8fc;strokeColor=#0066CC;strokeWidth=0.6;" vertex="1" parent="1">
          <mxGeometry x="350" y="310" width="20" height="20" as="geometry" />
        </mxCell>
        <mxCell id="2tsA4BJ0mwG9CYiNuvst-44" value="" style="ellipse;whiteSpace=wrap;html=1;aspect=fixed;fillColor=#dae8fc;strokeColor=#0066CC;strokeWidth=0.6;" vertex="1" parent="1">
          <mxGeometry x="380" y="240" width="20" height="20" as="geometry" />
        </mxCell>
        <mxCell id="2tsA4BJ0mwG9CYiNuvst-55" value="&lt;font style=&quot;font-size: 11px;&quot; face=&quot;Times New Roman&quot;&gt;Входной граф&lt;/font&gt;" style="text;html=1;align=center;verticalAlign=middle;resizable=0;points=[];autosize=1;strokeColor=none;fillColor=none;" vertex="1" parent="1">
          <mxGeometry x="205" y="388" width="90" height="30" as="geometry" />
        </mxCell>
        <mxCell id="2tsA4BJ0mwG9CYiNuvst-56" value="&lt;font style=&quot;font-size: 10px;&quot; face=&quot;Times New Roman&quot;&gt;узел i&lt;/font&gt;" style="text;html=1;align=center;verticalAlign=middle;resizable=0;points=[];autosize=1;strokeColor=none;fillColor=none;" vertex="1" parent="1">
          <mxGeometry x="290" y="220" width="50" height="30" as="geometry" />
        </mxCell>
        <mxCell id="2tsA4BJ0mwG9CYiNuvst-59" value="" style="curved=1;endArrow=classicThin;html=1;rounded=0;endFill=1;strokeWidth=0.7;" edge="1" parent="1">
          <mxGeometry width="50" height="50" relative="1" as="geometry">
            <mxPoint x="330" y="190" as="sourcePoint" />
            <mxPoint x="450" y="190" as="targetPoint" />
            <Array as="points">
              <mxPoint x="390" y="140" />
            </Array>
          </mxGeometry>
        </mxCell>
        <mxCell id="2tsA4BJ0mwG9CYiNuvst-65" style="rounded=0;orthogonalLoop=1;jettySize=auto;html=1;exitX=0.5;exitY=1;exitDx=0;exitDy=0;endArrow=none;endFill=0;entryX=0;entryY=0;entryDx=0;entryDy=0;" edge="1" parent="1" source="2tsA4BJ0mwG9CYiNuvst-60" target="2tsA4BJ0mwG9CYiNuvst-64">
          <mxGeometry relative="1" as="geometry">
            <mxPoint x="540" y="320" as="targetPoint" />
          </mxGeometry>
        </mxCell>
        <mxCell id="2tsA4BJ0mwG9CYiNuvst-67" style="rounded=0;orthogonalLoop=1;jettySize=auto;html=1;exitX=0.5;exitY=0;exitDx=0;exitDy=0;entryX=0.5;entryY=1;entryDx=0;entryDy=0;endArrow=none;endFill=0;" edge="1" parent="1" source="2tsA4BJ0mwG9CYiNuvst-60" target="2tsA4BJ0mwG9CYiNuvst-61">
          <mxGeometry relative="1" as="geometry" />
        </mxCell>
        <mxCell id="2tsA4BJ0mwG9CYiNuvst-68" style="rounded=0;orthogonalLoop=1;jettySize=auto;html=1;exitX=1;exitY=0.5;exitDx=0;exitDy=0;entryX=0;entryY=1;entryDx=0;entryDy=0;endArrow=none;endFill=0;" edge="1" parent="1" source="2tsA4BJ0mwG9CYiNuvst-60" target="2tsA4BJ0mwG9CYiNuvst-62">
          <mxGeometry relative="1" as="geometry" />
        </mxCell>
        <mxCell id="2tsA4BJ0mwG9CYiNuvst-70" style="rounded=0;orthogonalLoop=1;jettySize=auto;html=1;exitX=0;exitY=0.5;exitDx=0;exitDy=0;endArrow=none;endFill=0;entryX=1;entryY=1;entryDx=0;entryDy=0;" edge="1" parent="1" source="2tsA4BJ0mwG9CYiNuvst-60" target="2tsA4BJ0mwG9CYiNuvst-63">
          <mxGeometry relative="1" as="geometry">
            <mxPoint x="480" y="240" as="targetPoint" />
          </mxGeometry>
        </mxCell>
        <mxCell id="2tsA4BJ0mwG9CYiNuvst-60" value="" style="ellipse;whiteSpace=wrap;html=1;aspect=fixed;fillColor=#0000FF;strokeColor=#000000;fontColor=#ffffff;strokeWidth=1;" vertex="1" parent="1">
          <mxGeometry x="520" y="245" width="20" height="20" as="geometry" />
        </mxCell>
        <mxCell id="2tsA4BJ0mwG9CYiNuvst-61" value="" style="ellipse;whiteSpace=wrap;html=1;aspect=fixed;fillColor=#dae8fc;strokeColor=#0066CC;strokeWidth=0.6;" vertex="1" parent="1">
          <mxGeometry x="530" y="180" width="20" height="20" as="geometry" />
        </mxCell>
        <mxCell id="2tsA4BJ0mwG9CYiNuvst-62" value="" style="ellipse;whiteSpace=wrap;html=1;aspect=fixed;fillColor=#dae8fc;strokeColor=#0066CC;strokeWidth=0.6;" vertex="1" parent="1">
          <mxGeometry x="590" y="220" width="20" height="20" as="geometry" />
        </mxCell>
        <mxCell id="2tsA4BJ0mwG9CYiNuvst-63" value="" style="ellipse;whiteSpace=wrap;html=1;aspect=fixed;fillColor=#dae8fc;strokeColor=#0066CC;strokeWidth=0.6;" vertex="1" parent="1">
          <mxGeometry x="450" y="225" width="20" height="20" as="geometry" />
        </mxCell>
        <mxCell id="2tsA4BJ0mwG9CYiNuvst-64" value="" style="ellipse;whiteSpace=wrap;html=1;aspect=fixed;fillColor=#dae8fc;strokeColor=#0066CC;strokeWidth=0.6;" vertex="1" parent="1">
          <mxGeometry x="560" y="300" width="20" height="20" as="geometry" />
        </mxCell>
        <mxCell id="2tsA4BJ0mwG9CYiNuvst-71" value="&lt;p style=&quot;line-height: 120%; font-size: 8.5px;&quot;&gt;&lt;font face=&quot;Times New Roman&quot; style=&quot;font-size: 8.5px;&quot;&gt;3&lt;br&gt;1&lt;br&gt;0.5&lt;br&gt;3&lt;br&gt;...&lt;br&gt;&lt;/font&gt;&lt;/p&gt;" style="rounded=0;whiteSpace=wrap;html=1;strokeWidth=0.6;" vertex="1" parent="1">
          <mxGeometry x="480" y="190" width="20" height="60" as="geometry" />
        </mxCell>
        <mxCell id="2tsA4BJ0mwG9CYiNuvst-72" value="&lt;p style=&quot;line-height: 120%; font-size: 8.5px;&quot;&gt;&lt;font face=&quot;Times New Roman&quot; style=&quot;font-size: 8.5px;&quot;&gt;3&lt;br&gt;2&lt;br&gt;3.5&lt;br&gt;5&lt;br&gt;...&lt;br&gt;&lt;/font&gt;&lt;/p&gt;" style="rounded=0;whiteSpace=wrap;html=1;strokeWidth=0.6;" vertex="1" parent="1">
          <mxGeometry x="560" y="140" width="20" height="60" as="geometry" />
        </mxCell>
        <mxCell id="2tsA4BJ0mwG9CYiNuvst-73" value="&lt;p style=&quot;line-height: 120%; font-size: 8.5px;&quot;&gt;&lt;font face=&quot;Times New Roman&quot; style=&quot;font-size: 8.5px;&quot;&gt;1&lt;br&gt;12&lt;br&gt;0.5&lt;br&gt;2&lt;br&gt;...&lt;br&gt;&lt;/font&gt;&lt;/p&gt;" style="rounded=0;whiteSpace=wrap;html=1;strokeWidth=0.6;" vertex="1" parent="1">
          <mxGeometry x="590" y="310" width="20" height="60" as="geometry" />
        </mxCell>
        <mxCell id="2tsA4BJ0mwG9CYiNuvst-74" value="&lt;p style=&quot;line-height: 120%; font-size: 8.5px;&quot;&gt;&lt;font face=&quot;Times New Roman&quot; style=&quot;font-size: 8.5px;&quot;&gt;1&lt;br&gt;0.3&lt;br&gt;1.5&lt;br&gt;4.4&lt;br&gt;...&lt;br&gt;&lt;/font&gt;&lt;/p&gt;" style="rounded=0;whiteSpace=wrap;html=1;strokeWidth=0.6;" vertex="1" parent="1">
          <mxGeometry x="620" y="225" width="20" height="60" as="geometry" />
        </mxCell>
        <mxCell id="2tsA4BJ0mwG9CYiNuvst-75" value="&lt;font face=&quot;Times New Roman&quot; size=&quot;1&quot;&gt;x&lt;sub&gt;4&amp;nbsp;&lt;/sub&gt;=&lt;/font&gt;" style="text;html=1;align=center;verticalAlign=middle;resizable=0;points=[];autosize=1;strokeColor=none;fillColor=none;" vertex="1" parent="1">
          <mxGeometry x="445" y="200" width="40" height="30" as="geometry" />
        </mxCell>
        <mxCell id="2tsA4BJ0mwG9CYiNuvst-77" value="&lt;p style=&quot;line-height: 120%; font-size: 8.5px;&quot;&gt;&lt;font face=&quot;Times New Roman&quot; style=&quot;font-size: 8.5px;&quot;&gt;1&lt;br&gt;22&lt;br&gt;0&lt;br&gt;1&lt;br&gt;...&lt;br&gt;&lt;/font&gt;&lt;/p&gt;" style="rounded=0;whiteSpace=wrap;html=1;strokeWidth=0.6;" vertex="1" parent="1">
          <mxGeometry x="520" y="270" width="20" height="60" as="geometry" />
        </mxCell>
        <mxCell id="2tsA4BJ0mwG9CYiNuvst-79" value="&lt;span style=&quot;caret-color: rgb(0, 0, 0); color: rgb(0, 0, 0); font-family: &amp;quot;Times New Roman&amp;quot;; font-size: x-small; font-style: normal; font-variant-caps: normal; font-weight: 400; letter-spacing: normal; text-align: center; text-indent: 0px; text-transform: none; word-spacing: 0px; -webkit-text-stroke-width: 0px; background-color: rgb(251, 251, 251); text-decoration: none; float: none; display: inline !important;&quot;&gt;x&lt;sub&gt;1&lt;/sub&gt;&lt;/span&gt;&lt;sub style=&quot;border-color: var(--border-color); caret-color: rgb(0, 0, 0); color: rgb(0, 0, 0); font-family: &amp;quot;Times New Roman&amp;quot;; font-style: normal; font-variant-caps: normal; font-weight: 400; letter-spacing: normal; text-align: center; text-indent: 0px; text-transform: none; word-spacing: 0px; -webkit-text-stroke-width: 0px; text-decoration: none;&quot;&gt;&lt;span class=&quot;Apple-converted-space&quot;&gt;&amp;nbsp;&lt;/span&gt;&lt;/sub&gt;&lt;span style=&quot;caret-color: rgb(0, 0, 0); color: rgb(0, 0, 0); font-family: &amp;quot;Times New Roman&amp;quot;; font-size: x-small; font-style: normal; font-variant-caps: normal; font-weight: 400; letter-spacing: normal; text-align: center; text-indent: 0px; text-transform: none; word-spacing: 0px; -webkit-text-stroke-width: 0px; background-color: rgb(251, 251, 251); text-decoration: none; float: none; display: inline !important;&quot;&gt;=&lt;/span&gt;" style="text;whiteSpace=wrap;html=1;" vertex="1" parent="1">
          <mxGeometry x="530" y="150" width="50" height="40" as="geometry" />
        </mxCell>
        <mxCell id="2tsA4BJ0mwG9CYiNuvst-80" value="&lt;span style=&quot;caret-color: rgb(0, 0, 0); color: rgb(0, 0, 0); font-family: &amp;quot;Times New Roman&amp;quot;; font-size: x-small; font-style: normal; font-variant-caps: normal; font-weight: 400; letter-spacing: normal; text-align: center; text-indent: 0px; text-transform: none; word-spacing: 0px; -webkit-text-stroke-width: 0px; background-color: rgb(251, 251, 251); text-decoration: none; float: none; display: inline !important;&quot;&gt;x&lt;sub&gt;2&lt;/sub&gt;&lt;/span&gt;&lt;sub style=&quot;border-color: var(--border-color); caret-color: rgb(0, 0, 0); color: rgb(0, 0, 0); font-family: &amp;quot;Times New Roman&amp;quot;; font-style: normal; font-variant-caps: normal; font-weight: 400; letter-spacing: normal; text-align: center; text-indent: 0px; text-transform: none; word-spacing: 0px; -webkit-text-stroke-width: 0px; text-decoration: none;&quot;&gt;&lt;span class=&quot;Apple-converted-space&quot;&gt;&amp;nbsp;&lt;/span&gt;&lt;/sub&gt;&lt;span style=&quot;caret-color: rgb(0, 0, 0); color: rgb(0, 0, 0); font-family: &amp;quot;Times New Roman&amp;quot;; font-size: x-small; font-style: normal; font-variant-caps: normal; font-weight: 400; letter-spacing: normal; text-align: center; text-indent: 0px; text-transform: none; word-spacing: 0px; -webkit-text-stroke-width: 0px; background-color: rgb(251, 251, 251); text-decoration: none; float: none; display: inline !important;&quot;&gt;=&lt;/span&gt;" style="text;whiteSpace=wrap;html=1;" vertex="1" parent="1">
          <mxGeometry x="590" y="240" width="50" height="40" as="geometry" />
        </mxCell>
        <mxCell id="2tsA4BJ0mwG9CYiNuvst-82" value="&lt;span style=&quot;caret-color: rgb(0, 0, 0); color: rgb(0, 0, 0); font-family: &amp;quot;Times New Roman&amp;quot;; font-size: x-small; font-style: normal; font-variant-caps: normal; font-weight: 400; letter-spacing: normal; text-align: center; text-indent: 0px; text-transform: none; word-spacing: 0px; -webkit-text-stroke-width: 0px; background-color: rgb(251, 251, 251); text-decoration: none; float: none; display: inline !important;&quot;&gt;x&lt;/span&gt;&lt;span style=&quot;caret-color: rgb(0, 0, 0); color: rgb(0, 0, 0); font-family: &amp;quot;Times New Roman&amp;quot;; font-style: normal; font-variant-caps: normal; font-weight: 400; letter-spacing: normal; text-align: center; text-indent: 0px; text-transform: none; word-spacing: 0px; -webkit-text-stroke-width: 0px; background-color: rgb(251, 251, 251); text-decoration: none; float: none; display: inline !important;&quot;&gt;&lt;sub&gt;&lt;font style=&quot;font-size: 9px;&quot;&gt;3&lt;/font&gt;&lt;/sub&gt;&lt;/span&gt;&lt;sub style=&quot;border-color: var(--border-color); caret-color: rgb(0, 0, 0); color: rgb(0, 0, 0); font-family: &amp;quot;Times New Roman&amp;quot;; font-style: normal; font-variant-caps: normal; font-weight: 400; letter-spacing: normal; text-align: center; text-indent: 0px; text-transform: none; word-spacing: 0px; -webkit-text-stroke-width: 0px; text-decoration: none;&quot;&gt;&lt;span class=&quot;Apple-converted-space&quot;&gt;&amp;nbsp;&lt;/span&gt;&lt;/sub&gt;&lt;span style=&quot;caret-color: rgb(0, 0, 0); color: rgb(0, 0, 0); font-family: &amp;quot;Times New Roman&amp;quot;; font-size: x-small; font-style: normal; font-variant-caps: normal; font-weight: 400; letter-spacing: normal; text-align: center; text-indent: 0px; text-transform: none; word-spacing: 0px; -webkit-text-stroke-width: 0px; background-color: rgb(251, 251, 251); text-decoration: none; float: none; display: inline !important;&quot;&gt;=&lt;/span&gt;" style="text;whiteSpace=wrap;html=1;" vertex="1" parent="1">
          <mxGeometry x="560" y="320" width="50" height="40" as="geometry" />
        </mxCell>
        <mxCell id="2tsA4BJ0mwG9CYiNuvst-83" value="&lt;span style=&quot;caret-color: rgb(0, 0, 0); color: rgb(0, 0, 0); font-family: &amp;quot;Times New Roman&amp;quot;; font-size: x-small; font-style: normal; font-variant-caps: normal; font-weight: 400; letter-spacing: normal; text-align: center; text-indent: 0px; text-transform: none; word-spacing: 0px; -webkit-text-stroke-width: 0px; background-color: rgb(251, 251, 251); text-decoration: none; float: none; display: inline !important;&quot;&gt;x&lt;/span&gt;&lt;span style=&quot;caret-color: rgb(0, 0, 0); color: rgb(0, 0, 0); font-family: &amp;quot;Times New Roman&amp;quot;; font-style: normal; font-variant-caps: normal; font-weight: 400; letter-spacing: normal; text-align: center; text-indent: 0px; text-transform: none; word-spacing: 0px; -webkit-text-stroke-width: 0px; background-color: rgb(251, 251, 251); text-decoration: none; float: none; display: inline !important;&quot;&gt;&lt;sub&gt;&lt;font style=&quot;font-size: 9px;&quot;&gt;0&lt;/font&gt;&lt;/sub&gt;&lt;/span&gt;&lt;sub style=&quot;border-color: var(--border-color); caret-color: rgb(0, 0, 0); color: rgb(0, 0, 0); font-family: &amp;quot;Times New Roman&amp;quot;; font-style: normal; font-variant-caps: normal; font-weight: 400; letter-spacing: normal; text-align: center; text-indent: 0px; text-transform: none; word-spacing: 0px; -webkit-text-stroke-width: 0px; text-decoration: none;&quot;&gt;&lt;span class=&quot;Apple-converted-space&quot;&gt;&amp;nbsp;&lt;/span&gt;&lt;/sub&gt;&lt;span style=&quot;caret-color: rgb(0, 0, 0); color: rgb(0, 0, 0); font-family: &amp;quot;Times New Roman&amp;quot;; font-size: x-small; font-style: normal; font-variant-caps: normal; font-weight: 400; letter-spacing: normal; text-align: center; text-indent: 0px; text-transform: none; word-spacing: 0px; -webkit-text-stroke-width: 0px; background-color: rgb(251, 251, 251); text-decoration: none; float: none; display: inline !important;&quot;&gt;=&lt;/span&gt;" style="text;whiteSpace=wrap;html=1;" vertex="1" parent="1">
          <mxGeometry x="490" y="285" width="50" height="40" as="geometry" />
        </mxCell>
        <mxCell id="2tsA4BJ0mwG9CYiNuvst-85" value="&lt;font style=&quot;font-size: 11px;&quot; face=&quot;Times New Roman&quot;&gt;Вычислительный граф узла i на уровне 1&lt;/font&gt;" style="text;html=1;align=center;verticalAlign=middle;resizable=0;points=[];autosize=1;strokeColor=none;fillColor=none;" vertex="1" parent="1">
          <mxGeometry x="450" y="388" width="220" height="30" as="geometry" />
        </mxCell>
        <mxCell id="2tsA4BJ0mwG9CYiNuvst-91" style="rounded=0;orthogonalLoop=1;jettySize=auto;html=1;exitX=1;exitY=0.5;exitDx=0;exitDy=0;entryX=0;entryY=0;entryDx=0;entryDy=0;endArrow=none;endFill=0;strokeWidth=0.6;" edge="1" parent="1" source="2tsA4BJ0mwG9CYiNuvst-86" target="2tsA4BJ0mwG9CYiNuvst-90">
          <mxGeometry relative="1" as="geometry" />
        </mxCell>
        <mxCell id="2tsA4BJ0mwG9CYiNuvst-86" value="" style="ellipse;whiteSpace=wrap;html=1;aspect=fixed;fillColor=#dae8fc;strokeColor=#0066CC;strokeWidth=0.6;" vertex="1" parent="1">
          <mxGeometry x="150" y="423" width="20" height="20" as="geometry" />
        </mxCell>
        <mxCell id="2tsA4BJ0mwG9CYiNuvst-102" style="rounded=0;orthogonalLoop=1;jettySize=auto;html=1;exitX=1;exitY=0.5;exitDx=0;exitDy=0;entryX=0;entryY=0.25;entryDx=0;entryDy=0;endArrow=none;endFill=0;strokeWidth=0.6;" edge="1" parent="1" source="2tsA4BJ0mwG9CYiNuvst-96" target="2tsA4BJ0mwG9CYiNuvst-90">
          <mxGeometry relative="1" as="geometry" />
        </mxCell>
        <mxCell id="2tsA4BJ0mwG9CYiNuvst-87" value="" style="ellipse;whiteSpace=wrap;html=1;aspect=fixed;fillColor=#dae8fc;strokeColor=#0066CC;strokeWidth=0.6;" vertex="1" parent="1">
          <mxGeometry x="150" y="453" width="20" height="20" as="geometry" />
        </mxCell>
        <mxCell id="2tsA4BJ0mwG9CYiNuvst-93" style="rounded=0;orthogonalLoop=1;jettySize=auto;html=1;exitX=1;exitY=0.5;exitDx=0;exitDy=0;entryX=0;entryY=0.75;entryDx=0;entryDy=0;endArrow=none;endFill=0;strokeWidth=0.6;" edge="1" parent="1" source="2tsA4BJ0mwG9CYiNuvst-88" target="2tsA4BJ0mwG9CYiNuvst-90">
          <mxGeometry relative="1" as="geometry" />
        </mxCell>
        <mxCell id="2tsA4BJ0mwG9CYiNuvst-88" value="" style="ellipse;whiteSpace=wrap;html=1;aspect=fixed;fillColor=#dae8fc;strokeColor=#0066CC;strokeWidth=0.6;" vertex="1" parent="1">
          <mxGeometry x="150" y="483" width="20" height="20" as="geometry" />
        </mxCell>
        <mxCell id="2tsA4BJ0mwG9CYiNuvst-94" style="rounded=0;orthogonalLoop=1;jettySize=auto;html=1;exitX=1;exitY=0.5;exitDx=0;exitDy=0;entryX=0;entryY=1;entryDx=0;entryDy=0;endArrow=none;endFill=0;strokeWidth=0.6;" edge="1" parent="1" source="2tsA4BJ0mwG9CYiNuvst-89" target="2tsA4BJ0mwG9CYiNuvst-90">
          <mxGeometry relative="1" as="geometry" />
        </mxCell>
        <mxCell id="2tsA4BJ0mwG9CYiNuvst-89" value="" style="ellipse;whiteSpace=wrap;html=1;aspect=fixed;fillColor=#dae8fc;strokeColor=#0066CC;strokeWidth=0.6;" vertex="1" parent="1">
          <mxGeometry x="150" y="513" width="20" height="20" as="geometry" />
        </mxCell>
        <mxCell id="2tsA4BJ0mwG9CYiNuvst-104" style="edgeStyle=orthogonalEdgeStyle;rounded=0;orthogonalLoop=1;jettySize=auto;html=1;exitX=1;exitY=0.5;exitDx=0;exitDy=0;strokeWidth=0.6;endArrow=classicThin;endFill=1;" edge="1" parent="1" source="2tsA4BJ0mwG9CYiNuvst-90">
          <mxGeometry relative="1" as="geometry">
            <mxPoint x="360" y="473" as="targetPoint" />
          </mxGeometry>
        </mxCell>
        <mxCell id="2tsA4BJ0mwG9CYiNuvst-90" value="&lt;font style=&quot;font-size: 11px;&quot; face=&quot;Times New Roman&quot;&gt;Агрегация&lt;/font&gt;" style="rounded=0;whiteSpace=wrap;html=1;strokeWidth=0.7;" vertex="1" parent="1">
          <mxGeometry x="210" y="463" width="60" height="20" as="geometry" />
        </mxCell>
        <mxCell id="2tsA4BJ0mwG9CYiNuvst-95" value="&lt;font style=&quot;font-size: 11px;&quot; face=&quot;Times New Roman&quot;&gt;x&lt;sub&gt;1&lt;/sub&gt;&lt;/font&gt;" style="text;html=1;align=center;verticalAlign=middle;resizable=0;points=[];autosize=1;strokeColor=none;fillColor=none;" vertex="1" parent="1">
          <mxGeometry x="170" y="418" width="30" height="30" as="geometry" />
        </mxCell>
        <mxCell id="2tsA4BJ0mwG9CYiNuvst-97" value="&lt;span style=&quot;caret-color: rgb(0, 0, 0); color: rgb(0, 0, 0); font-family: &amp;quot;Times New Roman&amp;quot;; font-size: 11px; font-style: normal; font-variant-caps: normal; font-weight: 400; letter-spacing: normal; text-align: center; text-indent: 0px; text-transform: none; word-spacing: 0px; -webkit-text-stroke-width: 0px; background-color: rgb(251, 251, 251); text-decoration: none; float: none; display: inline !important;&quot;&gt;x&lt;/span&gt;&lt;span style=&quot;caret-color: rgb(0, 0, 0); color: rgb(0, 0, 0); font-family: &amp;quot;Times New Roman&amp;quot;; font-style: normal; font-variant-caps: normal; font-weight: 400; letter-spacing: normal; text-align: center; text-indent: 0px; text-transform: none; word-spacing: 0px; -webkit-text-stroke-width: 0px; background-color: rgb(251, 251, 251); text-decoration: none; float: none; display: inline !important;&quot;&gt;&lt;font size=&quot;1&quot;&gt;&lt;sub&gt;3&lt;/sub&gt;&lt;/font&gt;&lt;/span&gt;" style="text;whiteSpace=wrap;html=1;" vertex="1" parent="1">
          <mxGeometry x="180" y="473" width="40" height="40" as="geometry" />
        </mxCell>
        <mxCell id="2tsA4BJ0mwG9CYiNuvst-98" value="&lt;span style=&quot;caret-color: rgb(0, 0, 0); color: rgb(0, 0, 0); font-family: &amp;quot;Times New Roman&amp;quot;; font-size: 11px; font-style: normal; font-variant-caps: normal; font-weight: 400; letter-spacing: normal; text-align: center; text-indent: 0px; text-transform: none; word-spacing: 0px; -webkit-text-stroke-width: 0px; text-decoration: none; float: none; display: inline !important;&quot;&gt;x&lt;/span&gt;&lt;span style=&quot;caret-color: rgb(0, 0, 0); color: rgb(0, 0, 0); font-family: &amp;quot;Times New Roman&amp;quot;; font-style: normal; font-variant-caps: normal; font-weight: 400; letter-spacing: normal; text-align: center; text-indent: 0px; text-transform: none; word-spacing: 0px; -webkit-text-stroke-width: 0px; text-decoration: none; float: none; display: inline !important;&quot;&gt;&lt;font size=&quot;1&quot;&gt;&lt;sub&gt;4&lt;/sub&gt;&lt;/font&gt;&lt;/span&gt;" style="text;whiteSpace=wrap;html=1;" vertex="1" parent="1">
          <mxGeometry x="180" y="503" width="40" height="40" as="geometry" />
        </mxCell>
        <mxCell id="2tsA4BJ0mwG9CYiNuvst-103" value="" style="rounded=0;orthogonalLoop=1;jettySize=auto;html=1;exitX=1;exitY=0.5;exitDx=0;exitDy=0;entryX=0;entryY=0.5;entryDx=0;entryDy=0;endArrow=none;endFill=0;strokeWidth=0.6;" edge="1" parent="1" source="2tsA4BJ0mwG9CYiNuvst-87" target="2tsA4BJ0mwG9CYiNuvst-96">
          <mxGeometry relative="1" as="geometry">
            <mxPoint x="170" y="463" as="sourcePoint" />
            <mxPoint x="210" y="468" as="targetPoint" />
          </mxGeometry>
        </mxCell>
        <mxCell id="2tsA4BJ0mwG9CYiNuvst-96" value="&lt;span style=&quot;caret-color: rgb(0, 0, 0); color: rgb(0, 0, 0); font-family: &amp;quot;Times New Roman&amp;quot;; font-size: 11px; font-style: normal; font-variant-caps: normal; font-weight: 400; letter-spacing: normal; text-align: center; text-indent: 0px; text-transform: none; word-spacing: 0px; -webkit-text-stroke-width: 0px; background-color: rgb(251, 251, 251); text-decoration: none; float: none; display: inline !important;&quot;&gt;x&lt;/span&gt;&lt;span style=&quot;caret-color: rgb(0, 0, 0); color: rgb(0, 0, 0); font-family: &amp;quot;Times New Roman&amp;quot;; font-style: normal; font-variant-caps: normal; font-weight: 400; letter-spacing: normal; text-align: center; text-indent: 0px; text-transform: none; word-spacing: 0px; -webkit-text-stroke-width: 0px; background-color: rgb(251, 251, 251); text-decoration: none; float: none; display: inline !important;&quot;&gt;&lt;font size=&quot;1&quot;&gt;&lt;sub&gt;2&lt;/sub&gt;&lt;/font&gt;&lt;/span&gt;" style="text;whiteSpace=wrap;html=1;" vertex="1" parent="1">
          <mxGeometry x="180" y="445.5" width="10" height="35" as="geometry" />
        </mxCell>
        <mxCell id="2tsA4BJ0mwG9CYiNuvst-105" value="&lt;font style=&quot;font-size: 10px;&quot; face=&quot;Times New Roman&quot;&gt;&amp;nbsp;сообщение&lt;/font&gt;" style="text;whiteSpace=wrap;html=1;" vertex="1" parent="1">
          <mxGeometry x="280" y="445.5" width="60" height="20" as="geometry" />
        </mxCell>
        <mxCell id="2tsA4BJ0mwG9CYiNuvst-106" value="&lt;p style=&quot;line-height: 120%; font-size: 8.5px;&quot;&gt;&lt;font face=&quot;Times New Roman&quot; style=&quot;font-size: 8.5px;&quot;&gt;2&lt;br&gt;15&lt;br&gt;0.15&lt;br&gt;3&lt;br&gt;...&lt;br&gt;&lt;/font&gt;&lt;/p&gt;" style="rounded=0;whiteSpace=wrap;html=1;strokeWidth=0.6;" vertex="1" parent="1">
          <mxGeometry x="390" y="443" width="20" height="60" as="geometry" />
        </mxCell>
        <mxCell id="2tsA4BJ0mwG9CYiNuvst-107" value="&lt;span style=&quot;border-color: var(--border-color); caret-color: rgb(0, 0, 0); color: rgb(0, 0, 0); font-family: &amp;quot;Times New Roman&amp;quot;; font-style: normal; font-variant-caps: normal; font-weight: 400; letter-spacing: normal; text-align: center; text-indent: 0px; text-transform: none; word-spacing: 0px; -webkit-text-stroke-width: 0px; text-decoration: none;&quot;&gt;&lt;span class=&quot;Apple-converted-space&quot;&gt;&lt;span style=&quot;font-size: 9px;&quot;&gt;M&lt;/span&gt;&lt;sub&gt;&amp;nbsp;&lt;/sub&gt;&lt;/span&gt;&lt;/span&gt;&lt;span style=&quot;caret-color: rgb(0, 0, 0); color: rgb(0, 0, 0); font-family: &amp;quot;Times New Roman&amp;quot;; font-size: x-small; font-style: normal; font-variant-caps: normal; font-weight: 400; letter-spacing: normal; text-align: center; text-indent: 0px; text-transform: none; word-spacing: 0px; -webkit-text-stroke-width: 0px; background-color: rgb(251, 251, 251); text-decoration: none; float: none; display: inline !important;&quot;&gt;=&lt;/span&gt;" style="text;whiteSpace=wrap;html=1;" vertex="1" parent="1">
          <mxGeometry x="370" y="458" width="50" height="40" as="geometry" />
        </mxCell>
        <mxCell id="2tsA4BJ0mwG9CYiNuvst-108" style="rounded=0;orthogonalLoop=1;jettySize=auto;html=1;exitX=1;exitY=0.5;exitDx=0;exitDy=0;strokeWidth=0.6;endArrow=classicThin;endFill=1;" edge="1" parent="1">
          <mxGeometry relative="1" as="geometry">
            <mxPoint x="480" y="473" as="targetPoint" />
            <mxPoint x="410" y="472.62" as="sourcePoint" />
          </mxGeometry>
        </mxCell>
        <mxCell id="2tsA4BJ0mwG9CYiNuvst-109" value="&lt;p style=&quot;line-height: 120%; font-size: 8.5px;&quot;&gt;&lt;font face=&quot;Times New Roman&quot; style=&quot;font-size: 8.5px;&quot;&gt;1&lt;br&gt;22&lt;br&gt;0&lt;br&gt;1&lt;br&gt;...&lt;br&gt;&lt;/font&gt;&lt;/p&gt;" style="rounded=0;whiteSpace=wrap;html=1;strokeWidth=0.6;" vertex="1" parent="1">
          <mxGeometry x="390" y="518" width="20" height="60" as="geometry" />
        </mxCell>
        <mxCell id="2tsA4BJ0mwG9CYiNuvst-110" value="&lt;span style=&quot;caret-color: rgb(0, 0, 0); color: rgb(0, 0, 0); font-family: &amp;quot;Times New Roman&amp;quot;; font-size: x-small; font-style: normal; font-variant-caps: normal; font-weight: 400; letter-spacing: normal; text-align: center; text-indent: 0px; text-transform: none; word-spacing: 0px; -webkit-text-stroke-width: 0px; background-color: rgb(251, 251, 251); text-decoration: none; float: none; display: inline !important;&quot;&gt;x&lt;/span&gt;&lt;span style=&quot;caret-color: rgb(0, 0, 0); color: rgb(0, 0, 0); font-family: &amp;quot;Times New Roman&amp;quot;; font-style: normal; font-variant-caps: normal; font-weight: 400; letter-spacing: normal; text-align: center; text-indent: 0px; text-transform: none; word-spacing: 0px; -webkit-text-stroke-width: 0px; background-color: rgb(251, 251, 251); text-decoration: none; float: none; display: inline !important;&quot;&gt;&lt;sub&gt;&lt;font style=&quot;font-size: 9px;&quot;&gt;0&lt;/font&gt;&lt;/sub&gt;&lt;/span&gt;&lt;sub style=&quot;border-color: var(--border-color); caret-color: rgb(0, 0, 0); color: rgb(0, 0, 0); font-family: &amp;quot;Times New Roman&amp;quot;; font-style: normal; font-variant-caps: normal; font-weight: 400; letter-spacing: normal; text-align: center; text-indent: 0px; text-transform: none; word-spacing: 0px; -webkit-text-stroke-width: 0px; text-decoration: none;&quot;&gt;&lt;span class=&quot;Apple-converted-space&quot;&gt;&amp;nbsp;&lt;/span&gt;&lt;/sub&gt;&lt;span style=&quot;caret-color: rgb(0, 0, 0); color: rgb(0, 0, 0); font-family: &amp;quot;Times New Roman&amp;quot;; font-size: x-small; font-style: normal; font-variant-caps: normal; font-weight: 400; letter-spacing: normal; text-align: center; text-indent: 0px; text-transform: none; word-spacing: 0px; -webkit-text-stroke-width: 0px; background-color: rgb(251, 251, 251); text-decoration: none; float: none; display: inline !important;&quot;&gt;=&lt;/span&gt;" style="text;whiteSpace=wrap;html=1;" vertex="1" parent="1">
          <mxGeometry x="370" y="533" width="50" height="40" as="geometry" />
        </mxCell>
        <mxCell id="2tsA4BJ0mwG9CYiNuvst-111" style="rounded=0;orthogonalLoop=1;jettySize=auto;html=1;exitX=1;exitY=0.5;exitDx=0;exitDy=0;strokeWidth=0.6;endArrow=classicThin;endFill=1;" edge="1" parent="1">
          <mxGeometry relative="1" as="geometry">
            <mxPoint x="480" y="483" as="targetPoint" />
            <mxPoint x="410" y="543" as="sourcePoint" />
          </mxGeometry>
        </mxCell>
        <mxCell id="2tsA4BJ0mwG9CYiNuvst-112" value="&lt;font face=&quot;Times New Roman&quot;&gt;&lt;span style=&quot;font-size: 11px;&quot;&gt;Обновление&lt;/span&gt;&lt;/font&gt;" style="rounded=0;whiteSpace=wrap;html=1;strokeWidth=0.7;" vertex="1" parent="1">
          <mxGeometry x="490" y="465.5" width="65" height="20" as="geometry" />
        </mxCell>
        <mxCell id="2tsA4BJ0mwG9CYiNuvst-113" style="rounded=0;orthogonalLoop=1;jettySize=auto;html=1;exitX=1;exitY=0.5;exitDx=0;exitDy=0;strokeWidth=0.6;endArrow=classicThin;endFill=1;" edge="1" parent="1">
          <mxGeometry relative="1" as="geometry">
            <mxPoint x="585" y="475.5" as="targetPoint" />
            <mxPoint x="555" y="475.81" as="sourcePoint" />
          </mxGeometry>
        </mxCell>
        <mxCell id="2tsA4BJ0mwG9CYiNuvst-114" value="&lt;p style=&quot;line-height: 120%; font-size: 8.5px;&quot;&gt;&lt;font face=&quot;Times New Roman&quot; style=&quot;font-size: 8.5px;&quot;&gt;2&lt;br&gt;15&lt;br&gt;0.5&lt;br&gt;...&lt;br&gt;&lt;/font&gt;&lt;/p&gt;" style="rounded=0;whiteSpace=wrap;html=1;strokeWidth=0.6;" vertex="1" parent="1">
          <mxGeometry x="620" y="445.5" width="20" height="60" as="geometry" />
        </mxCell>
        <mxCell id="2tsA4BJ0mwG9CYiNuvst-115" value="&lt;span style=&quot;caret-color: rgb(0, 0, 0); color: rgb(0, 0, 0); font-family: &amp;quot;Times New Roman&amp;quot;; font-style: normal; font-variant-caps: normal; font-weight: 400; letter-spacing: normal; text-align: center; text-indent: 0px; text-transform: none; word-spacing: 0px; -webkit-text-stroke-width: 0px; background-color: rgb(251, 251, 251); text-decoration: none; float: none; display: inline !important;&quot;&gt;&lt;font size=&quot;1&quot;&gt;h&lt;/font&gt;&lt;font style=&quot;vertical-align: sub; font-size: 9px;&quot;&gt;0&lt;/font&gt;&lt;/span&gt;&lt;sub style=&quot;border-color: var(--border-color); caret-color: rgb(0, 0, 0); color: rgb(0, 0, 0); font-family: &amp;quot;Times New Roman&amp;quot;; font-style: normal; font-variant-caps: normal; font-weight: 400; letter-spacing: normal; text-align: center; text-indent: 0px; text-transform: none; word-spacing: 0px; -webkit-text-stroke-width: 0px; text-decoration: none;&quot;&gt;&lt;span class=&quot;Apple-converted-space&quot;&gt;&amp;nbsp;&lt;/span&gt;&lt;/sub&gt;&lt;span style=&quot;caret-color: rgb(0, 0, 0); color: rgb(0, 0, 0); font-family: &amp;quot;Times New Roman&amp;quot;; font-size: x-small; font-style: normal; font-variant-caps: normal; font-weight: 400; letter-spacing: normal; text-align: center; text-indent: 0px; text-transform: none; word-spacing: 0px; -webkit-text-stroke-width: 0px; background-color: rgb(251, 251, 251); text-decoration: none; float: none; display: inline !important;&quot;&gt;=&lt;/span&gt;" style="text;whiteSpace=wrap;html=1;" vertex="1" parent="1">
          <mxGeometry x="590" y="460.5" width="50" height="40" as="geometry" />
        </mxCell>
        <mxCell id="2tsA4BJ0mwG9CYiNuvst-117" value="&lt;font style=&quot;font-size: 11px;&quot; face=&quot;Times New Roman&quot;&gt;вектор признаков&lt;/font&gt;" style="text;html=1;align=center;verticalAlign=middle;resizable=0;points=[];autosize=1;strokeColor=none;fillColor=none;" vertex="1" parent="1">
          <mxGeometry x="560" y="508" width="110" height="30" as="geometry" />
        </mxCell>
      </root>
    </mxGraphModel>
  </diagram>
</mxfile>
